<svg xmlns="http://www.w3.org/2000/svg" viewBox="0 0 260 190">
  <defs><filter id="s" x="-20%" y="-20%" width="150%" height="160%"><feDropShadow dx="1" dy="6" stdDeviation="4" flood-color="#24150f" flood-opacity=".2"/></filter></defs>
  <g filter="url(#s)" stroke="#29251f" stroke-width="4" stroke-linejoin="round">
    <path d="M18 39c35-9 75-5 111 16v116c-32-18-72-23-111-12z" fill="#eee7db"/>
    <path d="M129 55c35-23 75-27 113-18v119c-39-10-77-3-113 15z" fill="#e8e1d5"/>
    <path d="M129 55v116" fill="none"/>
  </g>
  <g fill="none" stroke="#9d7d45" stroke-width="2.5" stroke-linecap="round">
    <path d="M34 68c25-8 50-4 74 8M35 87c26-6 49-2 73 10M35 108c19-5 38-3 55 3"/>
    <path d="M150 73c17-14 43-20 68-18M150 93c25-13 49-15 69-11M151 115c20-9 38-10 60-8"/>
  </g>
  <path d="M56 136c16-22 30-22 45 1-17 8-31 7-45-1zM163 138l18-29 18 27-18 8z" fill="none" stroke="#651f28" stroke-width="3"/>
  <g transform="rotate(-12 208 70)" stroke="#29251f" stroke-width="3" stroke-linejoin="round">
    <path d="M204 18h12v112h-12z" fill="#c7aa70"/>
    <path d="M204 130l6 24 6-24z" fill="#e8e1d5"/>
    <path d="M204 18h12v13h-12z" fill="#651f28"/>
  </g>
</svg>
