<svg xmlns="http://www.w3.org/2000/svg" viewBox="0 0 300 220">
  <defs>
    <filter id="s" x="-20%" y="-20%" width="150%" height="165%">
      <feDropShadow dx="1" dy="7" stdDeviation="5" flood-color="#24150f" flood-opacity=".22"/>
    </filter>
    <linearGradient id="product" x1="0" y1="0" x2="1" y2="0">
      <stop offset="0" stop-color="#29251f"/>
      <stop offset=".26" stop-color="#6f665a"/>
      <stop offset=".5" stop-color="#e8e1d5"/>
      <stop offset=".67" stop-color="#756b5f"/>
      <stop offset="1" stop-color="#29251f"/>
    </linearGradient>
  </defs>

  <g transform="rotate(-3 150 112)" filter="url(#s)" stroke="#29251f" stroke-linejoin="round">
    <path d="M35 25l224 8 15 167-226 8z" fill="#80543b" stroke-width="4"/>
    <path d="M43 18l216 10 10 163-217 9z" fill="#eee7db" stroke-width="4"/>

    <g fill="#e8e1d5" stroke-width="2.5">
      <circle cx="48" cy="37" r="4"/><circle cx="49" cy="57" r="4"/>
      <circle cx="50" cy="77" r="4"/><circle cx="51" cy="97" r="4"/>
      <circle cx="52" cy="117" r="4"/><circle cx="53" cy="137" r="4"/>
      <circle cx="54" cy="157" r="4"/><circle cx="55" cy="177" r="4"/>
    </g>
    <g fill="none" stroke-width="2.5" stroke-linecap="round">
      <path d="M34 35c-12 0-12 10 0 10h14M35 55c-12 0-12 10 0 10h14M36 75c-12 0-12 10 0 10h14M37 95c-12 0-12 10 0 10h14"/>
      <path d="M38 115c-12 0-12 10 0 10h14M39 135c-12 0-12 10 0 10h14M40 155c-12 0-12 10 0 10h14M41 175c-12 0-12 10 0 10h14"/>
    </g>

    <g fill="none" stroke="#9d7d45" stroke-linecap="round">
      <ellipse cx="156" cy="113" rx="60" ry="70" stroke-width="1.8" stroke-dasharray="5 7" opacity=".5"/>
      <path d="M82 112h150M157 38v150M88 164c35 12 86 15 133 2M102 57c28-12 67-15 102-5" stroke-width="1.7" opacity=".55"/>
      <circle cx="97" cy="74" r="15" stroke-width="1.7" opacity=".5"/>
      <path d="M79 73h36M97 56v36M211 91l18-12M211 98l21-2" stroke-width="1.7" opacity=".55"/>
    </g>

    <g stroke-width="3.5">
      <circle cx="157" cy="55" r="12" fill="#c7aa70"/>
      <circle cx="157" cy="55" r="5" fill="#eee7db" stroke-width="2"/>
      <path d="M149 66c-17 7-27 23-29 42l-5 45c-2 15 8 26 23 29l36 2c15-2 25-12 24-27l-5-49c-2-19-13-34-29-42z" fill="url(#product)"/>
      <path d="M121 147l74 4 1 22c-14 11-26 13-57 9-15-2-24-13-24-27z" fill="#c7aa70"/>
      <path d="M145 72c-11 10-17 23-18 39l-3 31M151 69c5-2 11-2 17 0M128 157c15 5 35 7 55 2" fill="none" stroke="#eee7db" stroke-width="3" stroke-linecap="round" opacity=".8"/>
      <path d="M135 176c16 4 32 5 48 1" fill="none" stroke="#651f28" stroke-width="2.5" stroke-linecap="round"/>
    </g>

    <g fill="none" stroke="#651f28" stroke-width="2.2" stroke-linecap="round">
      <path d="M204 126c13 5 24 11 31 20M207 132c10 8 18 17 23 28"/>
      <path d="M83 136c9-7 18-11 28-13M83 142c10-2 18-2 27 0"/>
    </g>
  </g>

  <g transform="rotate(8 232 44)" filter="url(#s)" stroke="#29251f" stroke-width="3" stroke-linejoin="round">
    <path d="M182 30h91v20h-91z" fill="#e8e1d5"/>
    <path d="M249 30h24v20h-24z" fill="#651f28"/>
    <path d="M182 30l-13 10 13 10z" fill="#29251f"/>
    <path d="M190 35h47M242 30v20" fill="none" stroke="#9d7d45" stroke-width="2"/>
  </g>

  <g transform="rotate(-17 212 169)" filter="url(#s)" stroke="#29251f" stroke-width="3" stroke-linejoin="round">
    <path d="M164 159h112v18H164z" fill="#c7aa70"/>
    <path d="M164 159l-13 9 13 9z" fill="#29251f"/>
    <path d="M250 159h26v18h-26z" fill="#80543b"/>
    <path d="M173 164h62M242 159v18" fill="none" stroke="#eee7db" stroke-width="2"/>
  </g>
</svg>
